<?xml version="1.0" encoding="UTF-8" standalone="no"?>
<!DOCTYPE svg PUBLIC "-//W3C//DTD SVG 1.1//EN" "http://www.w3.org/Graphics/SVG/1.1/DTD/svg11.dtd">
<svg width="100%" height="100%" viewBox="0 0 93 124" version="1.1" xmlns="http://www.w3.org/2000/svg" xmlns:xlink="http://www.w3.org/1999/xlink" xml:space="preserve" xmlns:serif="http://www.serif.com/" style="fill-rule:evenodd;clip-rule:evenodd;stroke-linejoin:round;stroke-miterlimit:2;">
    <g transform="matrix(1,0,0,1,-774.907376,-558.288004)">
        <g transform="matrix(0.721406,0,0,0.306988,0,0)">
            <g transform="matrix(4.608557,0,0,10.829889,468.863006,-499.980163)">
                <path d="M140.617,223.366L140.617,214.091L159.167,214.091L159.167,223.366L140.617,223.366ZM140.617,223.366L140.617,232.641L131.342,232.641L131.342,223.366L140.617,223.366ZM149.892,241.916L149.892,232.641L159.167,232.641L159.167,241.916L149.892,241.916ZM149.892,241.916L149.892,251.191L131.342,251.191L131.342,241.916L149.892,241.916Z"/>
            </g>
        </g>
    </g>
</svg>
